<mxfile modified="2022-12-29T06:11:56.809Z" host="app.diagrams.net" agent="5.0 (Windows NT 6.1; WOW64) AppleWebKit/537.36 (KHTML, like Gecko) Chrome/108.0.0.0 Safari/537.36" etag="tp5pzlwArQNMEtJwMr0g" version="20.7.4" type="github">
  <diagram id="Ht1M8jgEwFfnCIfOTk4-" name="Page-1">
    <mxGraphModel dx="1622" dy="1048" grid="1" gridSize="10" guides="1" tooltips="1" connect="1" arrows="1" fold="1" page="1" pageScale="1" pageWidth="1169" pageHeight="827" math="0" shadow="0">
      <root>
        <mxCell id="0" />
        <mxCell id="1" parent="0" />
        <mxCell id="e0M8rHdP2AkRE7_6rXxw-16" value="AWS Cloud" style="points=[[0,0],[0.25,0],[0.5,0],[0.75,0],[1,0],[1,0.25],[1,0.5],[1,0.75],[1,1],[0.75,1],[0.5,1],[0.25,1],[0,1],[0,0.75],[0,0.5],[0,0.25]];outlineConnect=0;gradientColor=none;html=1;whiteSpace=wrap;fontSize=12;fontStyle=0;container=1;pointerEvents=0;collapsible=0;recursiveResize=0;shape=mxgraph.aws4.group;grIcon=mxgraph.aws4.group_aws_cloud_alt;strokeColor=#232F3E;fillColor=none;verticalAlign=top;align=left;spacingLeft=30;fontColor=#232F3E;dashed=0;" vertex="1" parent="1">
          <mxGeometry x="199" y="360" width="881" height="440" as="geometry" />
        </mxCell>
        <mxCell id="e0M8rHdP2AkRE7_6rXxw-1" value="" style="sketch=0;points=[[0,0,0],[0.25,0,0],[0.5,0,0],[0.75,0,0],[1,0,0],[0,1,0],[0.25,1,0],[0.5,1,0],[0.75,1,0],[1,1,0],[0,0.25,0],[0,0.5,0],[0,0.75,0],[1,0.25,0],[1,0.5,0],[1,0.75,0]];outlineConnect=0;fontColor=#232F3E;gradientColor=#F54749;gradientDirection=north;fillColor=#C7131F;strokeColor=#ffffff;dashed=0;verticalLabelPosition=bottom;verticalAlign=top;align=center;html=1;fontSize=12;fontStyle=0;aspect=fixed;shape=mxgraph.aws4.resourceIcon;resIcon=mxgraph.aws4.cognito;" vertex="1" parent="e0M8rHdP2AkRE7_6rXxw-16">
          <mxGeometry x="83" y="80" width="78" height="78" as="geometry" />
        </mxCell>
        <mxCell id="e0M8rHdP2AkRE7_6rXxw-3" value="" style="endArrow=classic;html=1;rounded=0;" edge="1" parent="e0M8rHdP2AkRE7_6rXxw-16">
          <mxGeometry width="50" height="50" relative="1" as="geometry">
            <mxPoint x="121.99999999999977" y="-28" as="sourcePoint" />
            <mxPoint x="121.99999999999977" y="70" as="targetPoint" />
          </mxGeometry>
        </mxCell>
        <mxCell id="e0M8rHdP2AkRE7_6rXxw-4" value="1" style="rounded=1;whiteSpace=wrap;html=1;fillColor=#007CBD;strokeColor=none;fontColor=#FFFFFF;fontStyle=1;fontSize=22;" vertex="1" parent="e0M8rHdP2AkRE7_6rXxw-16">
          <mxGeometry x="21" y="80" width="40" height="38" as="geometry" />
        </mxCell>
        <mxCell id="e0M8rHdP2AkRE7_6rXxw-5" value="&lt;span&gt;RESTful&lt;br&gt;Requests &amp;amp; Responses&lt;br&gt;&lt;/span&gt;" style="text;html=1;resizable=0;points=[];autosize=1;align=left;verticalAlign=top;spacingTop=-4;fontSize=14;fontStyle=1" vertex="1" parent="e0M8rHdP2AkRE7_6rXxw-16">
          <mxGeometry x="161" y="14" width="180" height="40" as="geometry" />
        </mxCell>
        <mxCell id="e0M8rHdP2AkRE7_6rXxw-2" value="" style="endArrow=classic;html=1;rounded=0;" edge="1" parent="e0M8rHdP2AkRE7_6rXxw-16">
          <mxGeometry width="50" height="50" relative="1" as="geometry">
            <mxPoint x="148.75" y="70" as="sourcePoint" />
            <mxPoint x="148.75" y="-28" as="targetPoint" />
          </mxGeometry>
        </mxCell>
        <mxCell id="e0M8rHdP2AkRE7_6rXxw-19" value="&lt;span&gt;Amazon Cognito&lt;br&gt;&lt;/span&gt;" style="text;html=1;resizable=0;points=[];autosize=1;align=left;verticalAlign=top;spacingTop=-4;fontSize=14;fontStyle=1" vertex="1" parent="e0M8rHdP2AkRE7_6rXxw-16">
          <mxGeometry x="83" y="170" width="130" height="20" as="geometry" />
        </mxCell>
        <mxCell id="-QjtrjUzRDEMRZ5MF8oH-47" value="High Level Architecture of&amp;nbsp;Wild Rydes Web Application" style="text;html=1;resizable=0;points=[];autosize=1;align=left;verticalAlign=top;spacingTop=-4;fontSize=30;fontStyle=1" parent="1" vertex="1">
          <mxGeometry x="56.5" y="64.5" width="810" height="40" as="geometry" />
        </mxCell>
        <mxCell id="-QjtrjUzRDEMRZ5MF8oH-48" value="Components" style="text;html=1;resizable=0;points=[];autosize=1;align=left;verticalAlign=top;spacingTop=-4;fontSize=16;" parent="1" vertex="1">
          <mxGeometry x="56.5" y="114.5" width="110" height="30" as="geometry" />
        </mxCell>
        <mxCell id="SCVMTBWpLvtzJIhz15lM-1" value="" style="line;strokeWidth=2;html=1;fontSize=14;" parent="1" vertex="1">
          <mxGeometry x="52.5" y="139.5" width="1060" height="10" as="geometry" />
        </mxCell>
        <mxCell id="e0M8rHdP2AkRE7_6rXxw-11" value="" style="sketch=0;pointerEvents=1;shadow=0;dashed=0;html=1;strokeColor=none;fillColor=#434445;aspect=fixed;labelPosition=center;verticalLabelPosition=bottom;verticalAlign=top;align=center;outlineConnect=0;shape=mxgraph.vvd.web_browser;" vertex="1" parent="1">
          <mxGeometry x="313.49" y="260" width="84.51" height="60" as="geometry" />
        </mxCell>
        <mxCell id="e0M8rHdP2AkRE7_6rXxw-13" value="&lt;span&gt;Browser&lt;br&gt;&lt;/span&gt;" style="text;html=1;resizable=0;points=[];autosize=1;align=left;verticalAlign=top;spacingTop=-4;fontSize=14;fontStyle=1" vertex="1" parent="1">
          <mxGeometry x="315.75" y="230" width="80" height="20" as="geometry" />
        </mxCell>
      </root>
    </mxGraphModel>
  </diagram>
</mxfile>
